<svg width="132" height="31" viewBox="0 0 132 31" fill="none" xmlns="http://www.w3.org/2000/svg">
<path d="M5.77273 13.9091V24H0.931818V0.727272H5.63636V9.625H5.84091C6.23485 8.5947 6.87121 7.78788 7.75 7.20454C8.62879 6.61364 9.73106 6.31818 11.0568 6.31818C12.2689 6.31818 13.3258 6.58333 14.2273 7.11364C15.1364 7.63636 15.8409 8.39015 16.3409 9.375C16.8485 10.3523 17.0985 11.5227 17.0909 12.8864V24H12.25V13.75C12.2576 12.6742 11.9848 11.8371 11.4318 11.2386C10.8864 10.6402 10.1212 10.3409 9.13636 10.3409C8.47727 10.3409 7.89394 10.4811 7.38636 10.7614C6.88636 11.0417 6.49242 11.4508 6.20455 11.9886C5.92424 12.5189 5.7803 13.1591 5.77273 13.9091ZM32.4347 30.5455V21.2045H32.2869C32.0597 21.6894 31.7377 22.1705 31.321 22.6477C30.9119 23.1174 30.3778 23.5076 29.7188 23.8182C29.0672 24.1288 28.2718 24.2841 27.3324 24.2841C26.0066 24.2841 24.8059 23.9432 23.7301 23.2614C22.6619 22.572 21.8134 21.5606 21.1847 20.2273C20.5634 18.8864 20.2528 17.2424 20.2528 15.2955C20.2528 13.2955 20.5748 11.6326 21.2188 10.3068C21.8627 8.97348 22.7188 7.97727 23.7869 7.31818C24.8627 6.65152 26.0407 6.31818 27.321 6.31818C28.2983 6.31818 29.1127 6.48485 29.7642 6.81818C30.4233 7.14394 30.9536 7.55303 31.3551 8.04545C31.7642 8.5303 32.0748 9.00758 32.2869 9.47727H32.4915V6.54545H37.2642V30.5455H32.4347ZM28.8665 20.4318C29.6468 20.4318 30.3059 20.2197 30.8438 19.7955C31.3892 19.3636 31.8059 18.7614 32.0938 17.9886C32.3892 17.2159 32.5369 16.3106 32.5369 15.2727C32.5369 14.2348 32.393 13.3333 32.1051 12.5682C31.8172 11.803 31.4006 11.2121 30.8551 10.7955C30.3097 10.3788 29.6468 10.1705 28.8665 10.1705C28.071 10.1705 27.4006 10.3864 26.8551 10.8182C26.3097 11.25 25.8968 11.8485 25.6165 12.6136C25.3362 13.3788 25.196 14.2652 25.196 15.2727C25.196 16.2879 25.3362 17.1856 25.6165 17.9659C25.9044 18.7386 26.3172 19.3447 26.8551 19.7841C27.4006 20.2159 28.071 20.4318 28.8665 20.4318ZM43.9801 24.2955C43.2301 24.2955 42.5862 24.0303 42.0483 23.5C41.518 22.9621 41.2528 22.3182 41.2528 21.5682C41.2528 20.8258 41.518 20.1894 42.0483 19.6591C42.5862 19.1288 43.2301 18.8636 43.9801 18.8636C44.7074 18.8636 45.3438 19.1288 45.8892 19.6591C46.4347 20.1894 46.7074 20.8258 46.7074 21.5682C46.7074 22.0682 46.5786 22.5265 46.321 22.9432C46.071 23.3523 45.7415 23.6818 45.3324 23.9318C44.9233 24.1742 44.4725 24.2955 43.9801 24.2955ZM55.5227 13.9091V24H50.6818V6.54545H55.2955V9.625H55.5C55.8864 8.60985 56.5341 7.80682 57.4432 7.21591C58.3523 6.61742 59.4545 6.31818 60.75 6.31818C61.9621 6.31818 63.0189 6.58333 63.9205 7.11364C64.822 7.64394 65.5227 8.40151 66.0227 9.38636C66.5227 10.3636 66.7727 11.5303 66.7727 12.8864V24H61.9318V13.75C61.9394 12.6818 61.6667 11.8485 61.1136 11.25C60.5606 10.6439 59.7992 10.3409 58.8295 10.3409C58.178 10.3409 57.6023 10.4811 57.1023 10.7614C56.6098 11.0417 56.2235 11.4508 55.9432 11.9886C55.6705 12.5189 55.5303 13.1591 55.5227 13.9091ZM78.5426 24.3409C76.7472 24.3409 75.2017 23.9773 73.9062 23.25C72.6184 22.5152 71.6259 21.4773 70.929 20.1364C70.232 18.7879 69.8835 17.1932 69.8835 15.3523C69.8835 13.5568 70.232 11.9811 70.929 10.625C71.6259 9.26894 72.607 8.21212 73.8722 7.45454C75.1449 6.69697 76.6373 6.31818 78.3494 6.31818C79.5009 6.31818 80.5729 6.50379 81.5653 6.875C82.5653 7.23864 83.4366 7.78788 84.179 8.52273C84.929 9.25758 85.5123 10.1818 85.929 11.2955C86.3456 12.4015 86.554 13.697 86.554 15.1818V16.5114H71.8153V13.5114H81.9972C81.9972 12.8144 81.8456 12.197 81.5426 11.6591C81.2396 11.1212 80.8191 10.7008 80.2812 10.3977C79.7509 10.0871 79.1335 9.93182 78.429 9.93182C77.6941 9.93182 77.0426 10.1023 76.4744 10.4432C75.9138 10.7765 75.4744 11.2273 75.1562 11.7955C74.8381 12.3561 74.6752 12.9811 74.6676 13.6705V16.5227C74.6676 17.3864 74.8267 18.1326 75.1449 18.7614C75.4706 19.3902 75.929 19.875 76.5199 20.2159C77.1108 20.5568 77.8116 20.7273 78.6222 20.7273C79.16 20.7273 79.6525 20.6515 80.0994 20.5C80.5464 20.3485 80.929 20.1212 81.2472 19.8182C81.5653 19.5152 81.8078 19.1439 81.9744 18.7045L86.4517 19C86.2244 20.0758 85.7585 21.0152 85.054 21.8182C84.357 22.6136 83.4555 23.2348 82.3494 23.6818C81.2509 24.1212 79.982 24.3409 78.5426 24.3409ZM93.0312 24L88.2812 6.54545H93.179L95.8835 18.2727H96.0426L98.8608 6.54545H103.668L106.531 18.2045H106.679L109.338 6.54545H114.224L109.486 24H104.361L101.361 13.0227H101.145L98.1449 24H93.0312ZM131.33 11.5227L126.898 11.7955C126.822 11.4167 126.659 11.0758 126.409 10.7727C126.159 10.4621 125.83 10.2159 125.42 10.0341C125.019 9.8447 124.538 9.75 123.977 9.75C123.227 9.75 122.595 9.90909 122.08 10.2273C121.564 10.5379 121.307 10.9545 121.307 11.4773C121.307 11.8939 121.473 12.2462 121.807 12.5341C122.14 12.822 122.712 13.053 123.523 13.2273L126.682 13.8636C128.379 14.2121 129.644 14.7727 130.477 15.5455C131.311 16.3182 131.727 17.3333 131.727 18.5909C131.727 19.7348 131.39 20.7386 130.716 21.6023C130.049 22.4659 129.133 23.1402 127.966 23.625C126.807 24.1023 125.47 24.3409 123.955 24.3409C121.644 24.3409 119.803 23.8598 118.432 22.8977C117.068 21.928 116.269 20.6098 116.034 18.9432L120.795 18.6932C120.939 19.3977 121.288 19.9356 121.841 20.3068C122.394 20.6705 123.102 20.8523 123.966 20.8523C124.814 20.8523 125.496 20.6894 126.011 20.3636C126.534 20.0303 126.799 19.6023 126.807 19.0795C126.799 18.6402 126.614 18.2803 126.25 18C125.886 17.7121 125.326 17.4924 124.568 17.3409L121.545 16.7386C119.841 16.3977 118.572 15.8068 117.739 14.9659C116.913 14.125 116.5 13.053 116.5 11.75C116.5 10.6288 116.803 9.66288 117.409 8.85227C118.023 8.04167 118.883 7.41667 119.989 6.97727C121.102 6.53788 122.405 6.31818 123.898 6.31818C126.102 6.31818 127.837 6.78409 129.102 7.71591C130.375 8.64773 131.117 9.91667 131.33 11.5227Z" fill="white"/>
</svg>
